<mxfile host="app.diagrams.net" modified="2022-01-04T13:24:57.610Z" agent="5.0 (Windows NT 10.0; Win64; x64) AppleWebKit/537.36 (KHTML, like Gecko) Chrome/96.0.4664.110 Safari/537.36 Edg/96.0.1054.62" etag="q2FgLs1g5bKL2CoIDvvg" version="16.0.0" type="github">
  <diagram id="C5RBs43oDa-KdzZeNtuy" name="Page-1">
    <mxGraphModel dx="762" dy="451" grid="1" gridSize="10" guides="1" tooltips="1" connect="1" arrows="1" fold="1" page="1" pageScale="1" pageWidth="827" pageHeight="1169" math="0" shadow="0">
      <root>
        <mxCell id="WIyWlLk6GJQsqaUBKTNV-0" />
        <mxCell id="WIyWlLk6GJQsqaUBKTNV-1" parent="WIyWlLk6GJQsqaUBKTNV-0" />
        <mxCell id="7fWAnXXvCh8ymC8_PhxO-0" value="请求" style="shape=umlLifeline;perimeter=lifelinePerimeter;whiteSpace=wrap;html=1;container=1;collapsible=0;recursiveResize=0;outlineConnect=0;" vertex="1" parent="WIyWlLk6GJQsqaUBKTNV-1">
          <mxGeometry x="130" y="60" width="100" height="300" as="geometry" />
        </mxCell>
        <mxCell id="7fWAnXXvCh8ymC8_PhxO-3" value="" style="html=1;points=[];perimeter=orthogonalPerimeter;" vertex="1" parent="7fWAnXXvCh8ymC8_PhxO-0">
          <mxGeometry x="45" y="70" width="10" height="190" as="geometry" />
        </mxCell>
        <mxCell id="7fWAnXXvCh8ymC8_PhxO-1" value="异常拦截层" style="shape=umlLifeline;perimeter=lifelinePerimeter;whiteSpace=wrap;html=1;container=1;collapsible=0;recursiveResize=0;outlineConnect=0;lifelineDashed=0;" vertex="1" parent="WIyWlLk6GJQsqaUBKTNV-1">
          <mxGeometry x="250" y="60" width="100" height="300" as="geometry" />
        </mxCell>
        <mxCell id="7fWAnXXvCh8ymC8_PhxO-4" value="" style="html=1;points=[];perimeter=orthogonalPerimeter;" vertex="1" parent="7fWAnXXvCh8ymC8_PhxO-1">
          <mxGeometry x="45" y="130" width="10" height="100" as="geometry" />
        </mxCell>
        <mxCell id="7fWAnXXvCh8ymC8_PhxO-11" style="edgeStyle=orthogonalEdgeStyle;rounded=0;orthogonalLoop=1;jettySize=auto;html=1;" edge="1" parent="7fWAnXXvCh8ymC8_PhxO-1" source="7fWAnXXvCh8ymC8_PhxO-4" target="7fWAnXXvCh8ymC8_PhxO-4">
          <mxGeometry relative="1" as="geometry" />
        </mxCell>
        <mxCell id="7fWAnXXvCh8ymC8_PhxO-2" value="业务逻辑层" style="shape=umlLifeline;perimeter=lifelinePerimeter;whiteSpace=wrap;html=1;container=1;collapsible=0;recursiveResize=0;outlineConnect=0;lifelineDashed=0;" vertex="1" parent="WIyWlLk6GJQsqaUBKTNV-1">
          <mxGeometry x="390" y="60" width="100" height="300" as="geometry" />
        </mxCell>
        <mxCell id="7fWAnXXvCh8ymC8_PhxO-5" value="" style="html=1;points=[];perimeter=orthogonalPerimeter;" vertex="1" parent="7fWAnXXvCh8ymC8_PhxO-2">
          <mxGeometry x="45" y="92" width="10" height="80" as="geometry" />
        </mxCell>
        <mxCell id="7fWAnXXvCh8ymC8_PhxO-6" style="edgeStyle=orthogonalEdgeStyle;rounded=0;orthogonalLoop=1;jettySize=auto;html=1;entryX=-0.033;entryY=0.217;entryDx=0;entryDy=0;entryPerimeter=0;exitX=1.1;exitY=0.211;exitDx=0;exitDy=0;exitPerimeter=0;" edge="1" parent="WIyWlLk6GJQsqaUBKTNV-1" source="7fWAnXXvCh8ymC8_PhxO-3" target="7fWAnXXvCh8ymC8_PhxO-5">
          <mxGeometry relative="1" as="geometry" />
        </mxCell>
        <mxCell id="7fWAnXXvCh8ymC8_PhxO-7" value="请求" style="edgeLabel;html=1;align=center;verticalAlign=middle;resizable=0;points=[];" vertex="1" connectable="0" parent="7fWAnXXvCh8ymC8_PhxO-6">
          <mxGeometry x="-0.1926" y="1" relative="1" as="geometry">
            <mxPoint x="17" as="offset" />
          </mxGeometry>
        </mxCell>
        <mxCell id="7fWAnXXvCh8ymC8_PhxO-8" style="edgeStyle=orthogonalEdgeStyle;rounded=0;orthogonalLoop=1;jettySize=auto;html=1;" edge="1" parent="WIyWlLk6GJQsqaUBKTNV-1">
          <mxGeometry relative="1" as="geometry">
            <mxPoint x="435" y="220" as="sourcePoint" />
            <mxPoint x="306" y="220" as="targetPoint" />
            <Array as="points">
              <mxPoint x="410" y="220" />
              <mxPoint x="410" y="220" />
            </Array>
          </mxGeometry>
        </mxCell>
        <mxCell id="7fWAnXXvCh8ymC8_PhxO-9" value="响应结果" style="edgeLabel;html=1;align=center;verticalAlign=middle;resizable=0;points=[];" vertex="1" connectable="0" parent="7fWAnXXvCh8ymC8_PhxO-8">
          <mxGeometry x="0.1835" relative="1" as="geometry">
            <mxPoint x="11" as="offset" />
          </mxGeometry>
        </mxCell>
        <mxCell id="7fWAnXXvCh8ymC8_PhxO-12" style="edgeStyle=orthogonalEdgeStyle;rounded=0;orthogonalLoop=1;jettySize=auto;html=1;exitX=-0.167;exitY=0.933;exitDx=0;exitDy=0;exitPerimeter=0;entryX=1.167;entryY=0.811;entryDx=0;entryDy=0;entryPerimeter=0;" edge="1" parent="WIyWlLk6GJQsqaUBKTNV-1" source="7fWAnXXvCh8ymC8_PhxO-4" target="7fWAnXXvCh8ymC8_PhxO-3">
          <mxGeometry relative="1" as="geometry">
            <mxPoint x="190" y="283" as="targetPoint" />
          </mxGeometry>
        </mxCell>
      </root>
    </mxGraphModel>
  </diagram>
</mxfile>
